<svg xmlns="http://www.w3.org/2000/svg" xmlns:xlink="http://www.w3.org/1999/xlink" width="500" zoomAndPan="magnify" viewBox="0 0 375 374.999991" height="500" preserveAspectRatio="xMidYMid meet" version="1.0"><defs><g/><clipPath id="f4fd324797"><path d="M 5.792969 6.519531 L 302.042969 6.519531 L 302.042969 290.769531 L 5.792969 290.769531 Z M 5.792969 6.519531 " clip-rule="nonzero"/></clipPath></defs><g clip-path="url(#f4fd324797)"><path fill="#000000" d="M 301.90625 13.582031 C 301.003906 8.867188 296.472656 5.757812 291.734375 6.660156 L 245.410156 15.507812 C 242.484375 16.070312 240.035156 18.09375 238.933594 20.882812 L 218.75 72.324219 L 106.378906 75.132812 C 112.078125 80.691406 115.628906 88.453125 115.628906 97.039062 C 115.628906 113.953125 101.925781 127.65625 85.03125 127.65625 C 68.121094 127.65625 54.417969 113.953125 54.417969 97.039062 C 54.417969 96.761719 54.417969 96.480469 54.4375 96.199219 C 52.269531 97.082031 49.882812 97.582031 47.394531 97.582031 C 37.023438 97.582031 28.617188 89.15625 28.617188 78.804688 C 28.617188 78.222656 28.65625 77.640625 28.695312 77.078125 L 14.292969 77.441406 C 11.824219 77.519531 9.496094 78.625 7.914062 80.488281 C 6.308594 82.375 5.566406 84.824219 5.886719 87.269531 L 18.265625 183.8125 C 18.785156 187.882812 22.117188 191.054688 26.210938 191.375 L 176.175781 203.089844 L 203.261719 229.894531 C 206.410156 233.003906 205.246094 236.617188 204.84375 237.636719 C 204.425781 238.660156 202.699219 242.050781 198.265625 242.050781 L 16.839844 242.050781 C 12.023438 242.050781 8.132812 245.945312 8.132812 250.757812 C 8.132812 255.554688 12.023438 259.464844 16.839844 259.464844 L 35.457031 259.464844 C 30.421875 262.394531 27.03125 267.8125 27.03125 274.050781 C 27.03125 283.359375 34.617188 290.945312 43.925781 290.945312 C 53.253906 290.945312 60.816406 283.359375 60.816406 274.050781 C 60.816406 267.8125 57.40625 262.394531 52.390625 259.464844 L 192.867188 259.464844 C 187.832031 262.394531 184.441406 267.8125 184.441406 274.050781 C 184.441406 283.359375 192.027344 290.945312 201.335938 290.945312 C 210.644531 290.945312 218.226562 283.359375 218.226562 274.050781 C 218.226562 266.589844 213.351562 260.25 206.632812 258.023438 C 213.03125 255.753906 218.1875 250.917969 220.914062 244.257812 C 224.769531 234.890625 222.679688 224.65625 215.5 217.515625 L 190.238281 192.496094 L 232.832031 84.082031 C 232.832031 84.058594 232.832031 84.058594 232.832031 84.058594 L 253.375 31.695312 L 294.984375 23.753906 C 299.722656 22.871094 302.8125 18.316406 301.90625 13.582031 Z M 54.496094 274.050781 C 54.496094 279.890625 49.742188 284.625 43.925781 284.625 C 38.105469 284.625 33.351562 279.890625 33.351562 274.050781 C 33.351562 268.234375 38.105469 263.480469 43.925781 263.480469 C 49.742188 263.480469 54.496094 268.214844 54.496094 274.050781 Z M 211.90625 274.050781 C 211.90625 279.890625 207.152344 284.625 201.335938 284.625 C 195.515625 284.625 190.761719 279.890625 190.761719 274.050781 C 190.761719 268.234375 195.515625 263.480469 201.335938 263.480469 C 207.152344 263.480469 211.90625 268.214844 211.90625 274.050781 Z M 211.90625 274.050781 " fill-opacity="1" fill-rule="nonzero"/></g><path fill="#000000" d="M 43.925781 269.117188 C 41.195312 269.117188 38.988281 271.324219 38.988281 274.050781 C 38.988281 276.78125 41.195312 278.988281 43.925781 278.988281 C 46.652344 278.988281 48.859375 276.78125 48.859375 274.050781 C 48.859375 271.324219 46.652344 269.117188 43.925781 269.117188 Z M 43.925781 269.117188 " fill-opacity="1" fill-rule="nonzero"/><path fill="#000000" d="M 196.398438 274.050781 C 196.398438 276.78125 198.605469 278.988281 201.335938 278.988281 C 204.0625 278.988281 206.269531 276.78125 206.269531 274.050781 C 206.269531 271.324219 204.0625 269.117188 201.335938 269.117188 C 198.605469 269.117188 196.398438 271.324219 196.398438 274.050781 Z M 196.398438 274.050781 " fill-opacity="1" fill-rule="nonzero"/><path fill="#7ed957" d="M 106.820312 97.0625 C 106.820312 97.773438 106.785156 98.488281 106.714844 99.199219 C 106.644531 99.910156 106.539062 100.613281 106.402344 101.316406 C 106.261719 102.015625 106.089844 102.707031 105.882812 103.390625 C 105.675781 104.074219 105.433594 104.746094 105.160156 105.40625 C 104.886719 106.066406 104.582031 106.710938 104.246094 107.339844 C 103.910156 107.972656 103.542969 108.582031 103.144531 109.175781 C 102.75 109.769531 102.324219 110.34375 101.871094 110.894531 C 101.417969 111.449219 100.9375 111.976562 100.433594 112.480469 C 99.929688 112.984375 99.398438 113.464844 98.847656 113.917969 C 98.296875 114.371094 97.722656 114.796875 97.128906 115.191406 C 96.535156 115.589844 95.921875 115.957031 95.292969 116.292969 C 94.664062 116.628906 94.019531 116.933594 93.359375 117.207031 C 92.699219 117.480469 92.027344 117.722656 91.34375 117.929688 C 90.660156 118.136719 89.96875 118.308594 89.265625 118.449219 C 88.566406 118.589844 87.859375 118.695312 87.148438 118.761719 C 86.4375 118.832031 85.726562 118.867188 85.011719 118.867188 C 84.296875 118.867188 83.585938 118.832031 82.875 118.761719 C 82.164062 118.695312 81.457031 118.589844 80.757812 118.449219 C 80.058594 118.308594 79.367188 118.136719 78.683594 117.929688 C 78 117.722656 77.328125 117.480469 76.667969 117.207031 C 76.007812 116.933594 75.363281 116.628906 74.730469 116.292969 C 74.101562 115.957031 73.492188 115.589844 72.898438 115.191406 C 72.300781 114.796875 71.730469 114.371094 71.175781 113.917969 C 70.625 113.464844 70.097656 112.984375 69.59375 112.480469 C 69.085938 111.976562 68.609375 111.449219 68.15625 110.894531 C 67.703125 110.34375 67.277344 109.769531 66.878906 109.175781 C 66.484375 108.582031 66.117188 107.972656 65.78125 107.339844 C 65.441406 106.710938 65.136719 106.066406 64.863281 105.40625 C 64.589844 104.746094 64.351562 104.074219 64.144531 103.390625 C 63.9375 102.707031 63.761719 102.015625 63.625 101.316406 C 63.484375 100.613281 63.378906 99.910156 63.308594 99.199219 C 63.238281 98.488281 63.203125 97.773438 63.203125 97.0625 C 63.203125 96.347656 63.238281 95.632812 63.308594 94.921875 C 63.378906 94.210938 63.484375 93.507812 63.625 92.804688 C 63.761719 92.105469 63.9375 91.414062 64.144531 90.730469 C 64.351562 90.046875 64.589844 89.375 64.863281 88.714844 C 65.136719 88.054688 65.441406 87.410156 65.78125 86.78125 C 66.117188 86.152344 66.484375 85.539062 66.878906 84.945312 C 67.277344 84.351562 67.703125 83.777344 68.15625 83.226562 C 68.609375 82.671875 69.085938 82.144531 69.59375 81.640625 C 70.097656 81.136719 70.625 80.65625 71.175781 80.203125 C 71.730469 79.75 72.300781 79.324219 72.898438 78.929688 C 73.492188 78.53125 74.101562 78.164062 74.730469 77.828125 C 75.363281 77.492188 76.007812 77.1875 76.667969 76.914062 C 77.328125 76.640625 78 76.398438 78.683594 76.191406 C 79.367188 75.984375 80.058594 75.8125 80.757812 75.671875 C 81.457031 75.53125 82.164062 75.429688 82.875 75.359375 C 83.585938 75.289062 84.296875 75.253906 85.011719 75.253906 C 85.726562 75.253906 86.4375 75.289062 87.148438 75.359375 C 87.859375 75.429688 88.566406 75.53125 89.265625 75.671875 C 89.96875 75.8125 90.660156 75.984375 91.34375 76.191406 C 92.027344 76.398438 92.699219 76.640625 93.359375 76.914062 C 94.019531 77.1875 94.664062 77.492188 95.292969 77.828125 C 95.921875 78.164062 96.535156 78.53125 97.128906 78.929688 C 97.722656 79.324219 98.296875 79.75 98.847656 80.203125 C 99.398438 80.65625 99.929688 81.136719 100.433594 81.640625 C 100.9375 82.144531 101.417969 82.671875 101.871094 83.226562 C 102.324219 83.777344 102.75 84.351562 103.144531 84.945312 C 103.542969 85.539062 103.910156 86.152344 104.246094 86.78125 C 104.582031 87.410156 104.886719 88.054688 105.160156 88.714844 C 105.433594 89.375 105.675781 90.046875 105.882812 90.730469 C 106.089844 91.414062 106.261719 92.105469 106.402344 92.804688 C 106.539062 93.507812 106.644531 94.210938 106.714844 94.921875 C 106.785156 95.632812 106.820312 96.347656 106.820312 97.0625 Z M 106.820312 97.0625 " fill-opacity="1" fill-rule="nonzero"/><path fill="#7ed957" d="M 57.207031 78.824219 C 57.207031 79.496094 57.140625 80.164062 57.007812 80.824219 C 56.878906 81.484375 56.683594 82.125 56.425781 82.746094 C 56.167969 83.367188 55.851562 83.960938 55.476562 84.519531 C 55.105469 85.078125 54.679688 85.597656 54.203125 86.074219 C 53.726562 86.550781 53.210938 86.972656 52.648438 87.347656 C 52.089844 87.722656 51.5 88.039062 50.878906 88.296875 C 50.253906 88.554688 49.613281 88.746094 48.953125 88.878906 C 48.292969 89.011719 47.628906 89.074219 46.953125 89.074219 C 46.28125 89.074219 45.613281 89.011719 44.953125 88.878906 C 44.292969 88.746094 43.652344 88.554688 43.03125 88.296875 C 42.410156 88.039062 41.816406 87.722656 41.257812 87.347656 C 40.699219 86.972656 40.179688 86.550781 39.703125 86.074219 C 39.230469 85.597656 38.804688 85.078125 38.429688 84.519531 C 38.054688 83.960938 37.738281 83.367188 37.480469 82.746094 C 37.226562 82.125 37.03125 81.484375 36.898438 80.824219 C 36.769531 80.164062 36.703125 79.496094 36.703125 78.824219 C 36.703125 78.152344 36.769531 77.484375 36.898438 76.824219 C 37.03125 76.164062 37.226562 75.523438 37.480469 74.902344 C 37.738281 74.277344 38.054688 73.6875 38.429688 73.128906 C 38.804688 72.570312 39.230469 72.050781 39.703125 71.574219 C 40.179688 71.097656 40.699219 70.671875 41.257812 70.300781 C 41.816406 69.925781 42.410156 69.609375 43.03125 69.351562 C 43.652344 69.09375 44.292969 68.898438 44.953125 68.769531 C 45.613281 68.636719 46.28125 68.570312 46.953125 68.570312 C 47.628906 68.570312 48.292969 68.636719 48.953125 68.769531 C 49.613281 68.898438 50.253906 69.09375 50.878906 69.351562 C 51.5 69.609375 52.089844 69.925781 52.648438 70.300781 C 53.210938 70.671875 53.726562 71.097656 54.203125 71.574219 C 54.679688 72.050781 55.105469 72.570312 55.476562 73.128906 C 55.851562 73.6875 56.167969 74.277344 56.425781 74.902344 C 56.683594 75.523438 56.878906 76.164062 57.007812 76.824219 C 57.140625 77.484375 57.207031 78.152344 57.207031 78.824219 Z M 57.207031 78.824219 " fill-opacity="1" fill-rule="nonzero"/><path fill="#7ed957" d="M 89.445312 47.183594 C 89.445312 48.148438 89.351562 49.101562 89.164062 50.046875 C 88.976562 50.992188 88.699219 51.90625 88.328125 52.796875 C 87.960938 53.6875 87.507812 54.53125 86.972656 55.332031 C 86.441406 56.132812 85.832031 56.875 85.152344 57.554688 C 84.46875 58.238281 83.730469 58.84375 82.929688 59.378906 C 82.128906 59.914062 81.28125 60.367188 80.394531 60.734375 C 79.503906 61.101562 78.585938 61.382812 77.640625 61.570312 C 76.695312 61.757812 75.742188 61.851562 74.78125 61.851562 C 73.816406 61.851562 72.863281 61.757812 71.917969 61.570312 C 70.976562 61.382812 70.058594 61.101562 69.167969 60.734375 C 68.277344 60.367188 67.433594 59.914062 66.632812 59.378906 C 65.832031 58.84375 65.089844 58.238281 64.410156 57.554688 C 63.730469 56.875 63.121094 56.132812 62.585938 55.332031 C 62.050781 54.53125 61.601562 53.6875 61.230469 52.796875 C 60.863281 51.90625 60.585938 50.992188 60.398438 50.046875 C 60.207031 49.101562 60.113281 48.148438 60.113281 47.183594 C 60.113281 46.222656 60.207031 45.269531 60.398438 44.324219 C 60.585938 43.378906 60.863281 42.460938 61.230469 41.574219 C 61.601562 40.683594 62.050781 39.839844 62.585938 39.039062 C 63.121094 38.238281 63.730469 37.496094 64.410156 36.816406 C 65.089844 36.132812 65.832031 35.527344 66.632812 34.992188 C 67.433594 34.457031 68.277344 34.003906 69.167969 33.636719 C 70.058594 33.265625 70.976562 32.988281 71.917969 32.800781 C 72.863281 32.613281 73.816406 32.519531 74.78125 32.519531 C 75.742188 32.519531 76.695312 32.613281 77.640625 32.800781 C 78.585938 32.988281 79.503906 33.265625 80.394531 33.636719 C 81.28125 34.003906 82.128906 34.457031 82.929688 34.992188 C 83.730469 35.527344 84.46875 36.132812 85.152344 36.816406 C 85.832031 37.496094 86.441406 38.238281 86.972656 39.039062 C 87.507812 39.839844 87.960938 40.683594 88.328125 41.574219 C 88.699219 42.460938 88.976562 43.378906 89.164062 44.324219 C 89.351562 45.269531 89.445312 46.222656 89.445312 47.183594 Z M 89.445312 47.183594 " fill-opacity="1" fill-rule="nonzero"/><path fill="#7ed957" d="M 66.535156 19.960938 C 66.535156 20.410156 66.492188 20.855469 66.402344 21.296875 C 66.316406 21.734375 66.1875 22.164062 66.015625 22.578125 C 65.84375 22.992188 65.632812 23.386719 65.382812 23.761719 C 65.132812 24.136719 64.847656 24.480469 64.53125 24.796875 C 64.214844 25.117188 63.867188 25.398438 63.496094 25.648438 C 63.121094 25.898438 62.726562 26.109375 62.3125 26.28125 C 61.898438 26.453125 61.46875 26.582031 61.027344 26.671875 C 60.585938 26.757812 60.144531 26.800781 59.695312 26.800781 C 59.246094 26.800781 58.800781 26.757812 58.359375 26.671875 C 57.917969 26.582031 57.492188 26.453125 57.074219 26.28125 C 56.660156 26.109375 56.265625 25.898438 55.894531 25.648438 C 55.519531 25.398438 55.171875 25.117188 54.855469 24.796875 C 54.539062 24.480469 54.253906 24.136719 54.003906 23.761719 C 53.753906 23.386719 53.542969 22.992188 53.371094 22.578125 C 53.199219 22.164062 53.070312 21.734375 52.984375 21.296875 C 52.894531 20.855469 52.851562 20.410156 52.851562 19.960938 C 52.851562 19.511719 52.894531 19.066406 52.984375 18.625 C 53.070312 18.183594 53.199219 17.757812 53.371094 17.34375 C 53.542969 16.925781 53.753906 16.535156 54.003906 16.160156 C 54.253906 15.785156 54.539062 15.441406 54.855469 15.125 C 55.171875 14.804688 55.519531 14.523438 55.894531 14.273438 C 56.265625 14.023438 56.660156 13.8125 57.074219 13.640625 C 57.492188 13.46875 57.917969 13.339844 58.359375 13.25 C 58.800781 13.164062 59.246094 13.121094 59.695312 13.121094 C 60.144531 13.121094 60.585938 13.164062 61.027344 13.25 C 61.46875 13.339844 61.898438 13.46875 62.3125 13.640625 C 62.726562 13.8125 63.121094 14.023438 63.496094 14.273438 C 63.867188 14.523438 64.214844 14.804688 64.53125 15.125 C 64.847656 15.441406 65.132812 15.785156 65.382812 16.160156 C 65.632812 16.535156 65.84375 16.925781 66.015625 17.34375 C 66.1875 17.757812 66.316406 18.183594 66.402344 18.625 C 66.492188 19.066406 66.535156 19.511719 66.535156 19.960938 Z M 66.535156 19.960938 " fill-opacity="1" fill-rule="nonzero"/><path fill="#7ed957" d="M 48.859375 44.617188 C 48.859375 44.972656 48.824219 45.324219 48.757812 45.671875 C 48.6875 46.019531 48.585938 46.355469 48.449219 46.683594 C 48.3125 47.011719 48.148438 47.320312 47.949219 47.617188 C 47.753906 47.910156 47.53125 48.183594 47.277344 48.433594 C 47.027344 48.683594 46.757812 48.90625 46.460938 49.105469 C 46.167969 49.300781 45.855469 49.46875 45.527344 49.601562 C 45.199219 49.738281 44.863281 49.839844 44.515625 49.910156 C 44.167969 49.980469 43.816406 50.015625 43.464844 50.015625 C 43.109375 50.015625 42.757812 49.980469 42.410156 49.910156 C 42.0625 49.839844 41.726562 49.738281 41.398438 49.601562 C 41.070312 49.46875 40.757812 49.300781 40.464844 49.105469 C 40.171875 48.90625 39.898438 48.683594 39.648438 48.433594 C 39.394531 48.183594 39.171875 47.910156 38.976562 47.617188 C 38.777344 47.320312 38.613281 47.011719 38.476562 46.683594 C 38.339844 46.355469 38.238281 46.019531 38.167969 45.671875 C 38.101562 45.324219 38.066406 44.972656 38.066406 44.617188 C 38.066406 44.261719 38.101562 43.910156 38.167969 43.566406 C 38.238281 43.21875 38.339844 42.878906 38.476562 42.550781 C 38.613281 42.226562 38.777344 41.914062 38.976562 41.617188 C 39.171875 41.324219 39.394531 41.050781 39.648438 40.800781 C 39.898438 40.550781 40.171875 40.328125 40.464844 40.128906 C 40.757812 39.933594 41.070312 39.765625 41.398438 39.632812 C 41.726562 39.496094 42.0625 39.394531 42.410156 39.324219 C 42.757812 39.253906 43.109375 39.21875 43.464844 39.21875 C 43.816406 39.21875 44.167969 39.253906 44.515625 39.324219 C 44.863281 39.394531 45.199219 39.496094 45.527344 39.632812 C 45.855469 39.765625 46.167969 39.933594 46.460938 40.128906 C 46.757812 40.328125 47.027344 40.550781 47.277344 40.800781 C 47.53125 41.050781 47.753906 41.324219 47.949219 41.617188 C 48.148438 41.914062 48.3125 42.226562 48.449219 42.550781 C 48.585938 42.878906 48.6875 43.21875 48.757812 43.566406 C 48.824219 43.910156 48.859375 44.261719 48.859375 44.617188 Z M 48.859375 44.617188 " fill-opacity="1" fill-rule="nonzero"/><g fill="#ffffff" fill-opacity="1"><g transform="translate(236.746367, 176.281677)"><g><path d="M 40.78125 2.1875 C 38.457031 2.1875 36.648438 1.828125 35.359375 1.109375 C 34.066406 0.398438 33.148438 -0.703125 32.609375 -2.203125 C 32.078125 -3.710938 31.8125 -5.726562 31.8125 -8.25 L 31.8125 -26.921875 L 19.6875 0 L 18.71875 0 L 6.109375 -27.40625 L 6.109375 0 L 4.171875 0 L 4.171875 -32.015625 L 8.78125 -32.015625 L 20.421875 -6.796875 L 31.8125 -32.015625 L 36.1875 -32.015625 L 36.1875 -8.25 C 36.1875 -5.238281 36.5625 -2.90625 37.3125 -1.25 C 38.070312 0.394531 39.226562 1.21875 40.78125 1.21875 Z M 40.78125 2.1875 "/></g></g></g><g fill="#ffffff" fill-opacity="1"><g transform="translate(283.067512, 176.281677)"><g><path d="M 8.921875 0.484375 C 7.890625 0.484375 6.835938 0.265625 5.765625 -0.171875 C 4.703125 -0.609375 3.789062 -1.328125 3.03125 -2.328125 C 2.269531 -3.328125 1.890625 -4.65625 1.890625 -6.3125 C 1.890625 -8.757812 3.03125 -10.5 5.3125 -11.53125 C 7.59375 -12.570312 10.578125 -13.09375 14.265625 -13.09375 L 15.71875 -13.09375 C 15.71875 -16.257812 15.28125 -18.425781 14.40625 -19.59375 C 13.53125 -20.757812 12.269531 -21.34375 10.625 -21.34375 C 9.164062 -21.34375 8 -21.035156 7.125 -20.421875 C 6.25 -19.804688 5.632812 -18.738281 5.28125 -17.21875 L 3.109375 -17.21875 C 3.109375 -18.3125 3.171875 -19.175781 3.296875 -19.8125 C 3.421875 -20.445312 3.757812 -21.035156 4.3125 -21.578125 C 4.894531 -22.160156 5.859375 -22.585938 7.203125 -22.859375 C 8.546875 -23.140625 10.007812 -23.28125 11.59375 -23.28125 C 14.207031 -23.28125 16.273438 -22.578125 17.796875 -21.171875 C 19.316406 -19.765625 20.078125 -17.070312 20.078125 -13.09375 L 20.078125 0 L 17.65625 0 L 15.953125 -2.1875 L 15.71875 -2.1875 C 15.132812 -1.4375 14.273438 -0.800781 13.140625 -0.28125 C 12.015625 0.226562 10.609375 0.484375 8.921875 0.484375 Z M 11.109375 -1.703125 C 12.171875 -1.703125 13.054688 -1.957031 13.765625 -2.46875 C 14.484375 -2.988281 15.132812 -3.703125 15.71875 -4.609375 L 15.71875 -11.15625 L 14.265625 -11.15625 C 11.867188 -11.15625 9.972656 -10.707031 8.578125 -9.8125 C 7.191406 -8.925781 6.5 -7.757812 6.5 -6.3125 C 6.5 -4.820312 6.941406 -3.679688 7.828125 -2.890625 C 8.722656 -2.097656 9.816406 -1.703125 11.109375 -1.703125 Z M 11.109375 -1.703125 "/></g></g></g><g fill="#ffffff" fill-opacity="1"><g transform="translate(311.248806, 176.281677)"><g><path d="M 3.875 -16.96875 C 3.875 -18.625 3.644531 -19.847656 3.1875 -20.640625 C 2.738281 -21.429688 1.835938 -21.828125 0.484375 -21.828125 L 0 -21.828125 L 0 -22.796875 L 3.875 -22.796875 C 5.101562 -22.796875 6.03125 -22.625 6.65625 -22.28125 C 7.289062 -21.945312 7.738281 -21.390625 8 -20.609375 L 8.25 -20.609375 C 8.832031 -21.359375 9.613281 -21.988281 10.59375 -22.5 C 11.582031 -23.019531 12.738281 -23.28125 14.0625 -23.28125 C 15.351562 -23.28125 16.320312 -23.035156 16.96875 -22.546875 C 17.519531 -22.128906 18.085938 -21.40625 18.671875 -20.375 L 16.734375 -18.921875 C 16.378906 -19.398438 15.859375 -19.757812 15.171875 -20 C 14.492188 -20.25 13.722656 -20.375 12.859375 -20.375 C 11.878906 -20.375 10.984375 -20.15625 10.171875 -19.71875 C 9.367188 -19.28125 8.726562 -18.6875 8.25 -17.9375 L 8.25 0 L 3.875 0 Z M 3.875 -16.96875 "/></g></g></g><g fill="#ffffff" fill-opacity="1"><g transform="translate(335.355898, 176.281677)"><g><path d="M 10.234375 0.484375 C 8.421875 0.484375 6.992188 -0.03125 5.953125 -1.0625 C 4.921875 -2.101562 4.40625 -3.6875 4.40625 -5.8125 L 4.40625 -20.859375 L 1.015625 -20.859375 L 1.015625 -22.796875 L 4.40625 -22.796875 L 4.40625 -27.15625 L 6.84375 -30.0625 L 8.78125 -30.0625 L 8.78125 -22.796875 L 14.59375 -22.796875 L 14.59375 -20.859375 L 8.78125 -20.859375 L 8.78125 -5.8125 C 8.78125 -2.90625 9.910156 -1.453125 12.171875 -1.453125 C 12.953125 -1.453125 13.609375 -1.53125 14.140625 -1.6875 C 14.671875 -1.851562 15.226562 -2.097656 15.8125 -2.421875 L 16.296875 -1.453125 C 15.554688 -0.898438 14.734375 -0.4375 13.828125 -0.0625 C 12.921875 0.300781 11.722656 0.484375 10.234375 0.484375 Z M 10.234375 0.484375 "/></g></g></g><g fill="#ffffff" fill-opacity="1"><g transform="translate(236.746367, 126.340844)"><g><path d="M 5.125 -26.125 C 5.125 -27.769531 4.894531 -28.984375 4.4375 -29.765625 C 3.988281 -30.554688 3.085938 -30.953125 1.734375 -30.953125 L 0.78125 -30.953125 L 0.78125 -31.921875 L 13.34375 -31.921875 C 16.445312 -31.921875 19.238281 -31.257812 21.71875 -29.9375 C 24.195312 -28.613281 25.4375 -26.050781 25.4375 -22.25 C 25.4375 -19.738281 24.789062 -17.804688 23.5 -16.453125 C 22.21875 -15.097656 20.773438 -14.191406 19.171875 -13.734375 C 17.578125 -13.285156 16.117188 -13.0625 14.796875 -13.0625 L 9.484375 -13.0625 L 9.484375 0 L 5.125 0 Z M 13.109375 -14.75 C 14.140625 -14.75 15.234375 -15.015625 16.390625 -15.546875 C 17.554688 -16.078125 18.550781 -16.921875 19.375 -18.078125 C 20.195312 -19.242188 20.609375 -20.71875 20.609375 -22.5 C 20.609375 -24.269531 20.195312 -25.734375 19.375 -26.890625 C 18.550781 -28.054688 17.554688 -28.90625 16.390625 -29.4375 C 15.234375 -29.96875 14.140625 -30.234375 13.109375 -30.234375 C 11.984375 -30.234375 10.773438 -30.070312 9.484375 -29.75 L 9.484375 -15.234375 C 10.773438 -14.910156 11.984375 -14.75 13.109375 -14.75 Z M 13.109375 -14.75 "/></g></g></g><g fill="#ffffff" fill-opacity="1"><g transform="translate(263.447696, 126.340844)"><g><path d="M 3.875 -16.9375 C 3.875 -18.570312 3.644531 -19.785156 3.1875 -20.578125 C 2.738281 -21.367188 1.835938 -21.765625 0.484375 -21.765625 L 0 -21.765625 L 0 -22.734375 L 3.875 -22.734375 C 5.09375 -22.734375 6.015625 -22.5625 6.640625 -22.21875 C 7.273438 -21.882812 7.722656 -21.332031 7.984375 -20.5625 L 8.21875 -20.5625 C 8.800781 -21.300781 9.582031 -21.925781 10.5625 -22.4375 C 11.550781 -22.957031 12.707031 -23.21875 14.03125 -23.21875 C 15.320312 -23.21875 16.289062 -22.976562 16.9375 -22.5 C 17.476562 -22.070312 18.039062 -21.34375 18.625 -20.3125 L 16.6875 -18.859375 C 16.332031 -19.347656 15.816406 -19.710938 15.140625 -19.953125 C 14.460938 -20.191406 13.6875 -20.3125 12.8125 -20.3125 C 11.851562 -20.3125 10.96875 -20.09375 10.15625 -19.65625 C 9.351562 -19.226562 8.707031 -18.644531 8.21875 -17.90625 L 8.21875 0 L 3.875 0 Z M 3.875 -16.9375 "/></g></g></g><g fill="#ffffff" fill-opacity="1"><g transform="translate(282.651375, 126.340844)"><g><path d="M 6.046875 -25.640625 C 5.304688 -25.640625 4.671875 -25.945312 4.140625 -26.5625 C 3.609375 -27.175781 3.34375 -27.898438 3.34375 -28.734375 C 3.34375 -29.410156 3.539062 -29.941406 3.9375 -30.328125 C 4.34375 -30.710938 4.882812 -30.90625 5.5625 -30.90625 C 6.300781 -30.90625 6.9375 -30.597656 7.46875 -29.984375 C 8 -29.378906 8.265625 -28.65625 8.265625 -27.8125 C 8.265625 -27.132812 8.0625 -26.601562 7.65625 -26.21875 C 7.257812 -25.832031 6.722656 -25.640625 6.046875 -25.640625 Z M 4.203125 -16.9375 C 4.203125 -18.570312 3.976562 -19.785156 3.53125 -20.578125 C 3.082031 -21.367188 2.179688 -21.765625 0.828125 -21.765625 L -0.140625 -21.765625 L -0.140625 -22.734375 L 4.203125 -22.734375 C 5.398438 -22.734375 6.296875 -22.578125 6.890625 -22.265625 C 7.484375 -21.960938 7.910156 -21.40625 8.171875 -20.59375 C 8.429688 -19.789062 8.5625 -18.570312 8.5625 -16.9375 L 8.5625 0 L 4.203125 0 Z M 4.203125 -16.9375 "/></g></g></g><g fill="#ffffff" fill-opacity="1"><g transform="translate(294.550871, 126.340844)"><g><path d="M 4.203125 -16.9375 C 4.203125 -18.570312 3.976562 -19.785156 3.53125 -20.578125 C 3.082031 -21.367188 2.179688 -21.765625 0.828125 -21.765625 L -0.140625 -21.765625 L -0.140625 -22.734375 L 4.203125 -22.734375 C 5.398438 -22.734375 6.3125 -22.570312 6.9375 -22.25 C 7.570312 -21.925781 8.035156 -21.441406 8.328125 -20.796875 L 8.5625 -20.796875 C 9.238281 -21.472656 10.113281 -22.046875 11.1875 -22.515625 C 12.269531 -22.984375 13.488281 -23.21875 14.84375 -23.21875 C 16.207031 -23.21875 17.367188 -22.96875 18.328125 -22.46875 C 19.296875 -21.96875 20.070312 -21.085938 20.65625 -19.828125 C 21.488281 -20.898438 22.554688 -21.734375 23.859375 -22.328125 C 25.171875 -22.921875 26.519531 -23.21875 27.90625 -23.21875 C 29.976562 -23.21875 31.625 -22.570312 32.84375 -21.28125 C 34.070312 -19.988281 34.6875 -17.734375 34.6875 -14.515625 L 34.6875 0 L 30.328125 0 L 30.328125 -14.515625 C 30.328125 -16.835938 30.003906 -18.503906 29.359375 -19.515625 C 28.710938 -20.535156 27.75 -21.046875 26.46875 -21.046875 C 25.5625 -21.046875 24.609375 -20.710938 23.609375 -20.046875 C 22.609375 -19.390625 21.863281 -18.675781 21.375 -17.90625 C 21.539062 -17.414062 21.625 -16.285156 21.625 -14.515625 L 21.625 0 L 17.265625 0 L 17.265625 -14.515625 C 17.265625 -16.835938 16.941406 -18.503906 16.296875 -19.515625 C 15.648438 -20.535156 14.6875 -21.046875 13.40625 -21.046875 C 11.695312 -21.046875 10.082031 -20.191406 8.5625 -18.484375 L 8.5625 0 L 4.203125 0 Z M 4.203125 -16.9375 "/></g></g></g><g fill="#ffffff" fill-opacity="1"><g transform="translate(332.522883, 126.340844)"><g><path d="M 12.328125 0.484375 C 10.140625 0.484375 8.285156 -0.0351562 6.765625 -1.078125 C 5.253906 -2.128906 4.109375 -3.550781 3.328125 -5.34375 C 2.554688 -7.132812 2.171875 -9.144531 2.171875 -11.375 C 2.171875 -13.5625 2.554688 -15.554688 3.328125 -17.359375 C 4.109375 -19.171875 5.234375 -20.597656 6.703125 -21.640625 C 8.171875 -22.691406 9.890625 -23.21875 11.859375 -23.21875 C 15.109375 -23.21875 17.53125 -22.304688 19.125 -20.484375 C 20.726562 -18.660156 21.53125 -16.023438 21.53125 -12.578125 L 21.4375 -10.640625 L 6.765625 -10.640625 C 6.765625 -7.929688 7.34375 -5.722656 8.5 -4.015625 C 9.664062 -2.304688 11.265625 -1.453125 13.296875 -1.453125 C 14.816406 -1.453125 16.097656 -1.773438 17.140625 -2.421875 C 18.191406 -3.066406 19.171875 -4.035156 20.078125 -5.328125 L 21.046875 -4.59375 C 19.984375 -2.820312 18.738281 -1.53125 17.3125 -0.71875 C 15.894531 0.0820312 14.234375 0.484375 12.328125 0.484375 Z M 16.9375 -12.578125 C 16.9375 -15.410156 16.515625 -17.566406 15.671875 -19.046875 C 14.835938 -20.535156 13.566406 -21.28125 11.859375 -21.28125 C 10.890625 -21.28125 10.015625 -20.898438 9.234375 -20.140625 C 8.460938 -19.390625 7.859375 -18.351562 7.421875 -17.03125 C 6.984375 -15.707031 6.765625 -14.222656 6.765625 -12.578125 Z M 16.9375 -12.578125 "/></g></g></g><g fill="#7ed957" fill-opacity="1"><g transform="translate(220.181092, 202.650889)"><g><path d="M 1.546875 -6.609375 C 2.335938 -7.359375 3.304688 -7.734375 4.453125 -7.734375 C 5.609375 -7.734375 6.578125 -7.359375 7.359375 -6.609375 C 8.140625 -5.867188 8.53125 -4.945312 8.53125 -3.84375 C 8.53125 -2.75 8.140625 -1.820312 7.359375 -1.0625 C 6.578125 -0.3125 5.609375 0.0625 4.453125 0.0625 C 3.304688 0.0625 2.335938 -0.3125 1.546875 -1.0625 C 0.765625 -1.820312 0.375 -2.75 0.375 -3.84375 C 0.375 -4.945312 0.765625 -5.867188 1.546875 -6.609375 Z M 4.46875 -6.5625 C 3.707031 -6.5625 3.050781 -6.300781 2.5 -5.78125 C 1.957031 -5.257812 1.6875 -4.613281 1.6875 -3.84375 C 1.6875 -3.082031 1.957031 -2.4375 2.5 -1.90625 C 3.050781 -1.375 3.703125 -1.109375 4.453125 -1.109375 C 5.210938 -1.109375 5.859375 -1.375 6.390625 -1.90625 C 6.929688 -2.4375 7.203125 -3.082031 7.203125 -3.84375 C 7.203125 -4.613281 6.929688 -5.257812 6.390625 -5.78125 C 5.859375 -6.300781 5.21875 -6.5625 4.46875 -6.5625 Z M 4.46875 -6.5625 "/></g></g></g><g fill="#7ed957" fill-opacity="1"><g transform="translate(232.38857, 202.650889)"><g><path d="M 7.6875 0 L 6.40625 0 L 2.3125 -5.515625 L 2.3125 0 L 1.015625 0 L 1.015625 -7.703125 L 2.28125 -7.703125 L 6.40625 -2.171875 L 6.40625 -7.703125 L 7.6875 -7.703125 Z M 7.6875 0 "/></g></g></g><g fill="#7ed957" fill-opacity="1"><g transform="translate(244.3981, 202.650889)"><g><path d="M 2.3125 -1.171875 L 5.640625 -1.171875 L 5.640625 0 L 1.015625 0 L 1.015625 -7.703125 L 2.3125 -7.703125 Z M 2.3125 -1.171875 "/></g></g></g><g fill="#7ed957" fill-opacity="1"><g transform="translate(253.570209, 202.650889)"><g><path d="M 2.3125 0 L 1.015625 0 L 1.015625 -7.703125 L 2.3125 -7.703125 Z M 2.3125 0 "/></g></g></g><g fill="#7ed957" fill-opacity="1"><g transform="translate(260.19083, 202.650889)"><g><path d="M 7.6875 0 L 6.40625 0 L 2.3125 -5.515625 L 2.3125 0 L 1.015625 0 L 1.015625 -7.703125 L 2.28125 -7.703125 L 6.40625 -2.171875 L 6.40625 -7.703125 L 7.6875 -7.703125 Z M 7.6875 0 "/></g></g></g><g fill="#7ed957" fill-opacity="1"><g transform="translate(272.200359, 202.650889)"><g><path d="M 6.515625 -6.53125 L 2.3125 -6.53125 L 2.3125 -4.453125 L 6.078125 -4.453125 L 6.078125 -3.28125 L 2.3125 -3.28125 L 2.3125 -1.171875 L 6.640625 -1.171875 L 6.640625 0 L 1.015625 0 L 1.015625 -7.703125 L 6.515625 -7.703125 Z M 6.515625 -6.53125 "/></g></g></g><g fill="#7ed957" fill-opacity="1"><g transform="translate(282.714185, 202.650889)"><g/></g></g><g fill="#7ed957" fill-opacity="1"><g transform="translate(288.850909, 202.650889)"><g><path d="M 3.546875 -7.75 C 4.535156 -7.75 5.429688 -7.488281 6.234375 -6.96875 L 5.703125 -5.8125 C 4.910156 -6.289062 4.15625 -6.53125 3.4375 -6.53125 C 3.050781 -6.53125 2.742188 -6.457031 2.515625 -6.3125 C 2.296875 -6.175781 2.1875 -5.976562 2.1875 -5.71875 C 2.1875 -5.46875 2.289062 -5.253906 2.5 -5.078125 C 2.707031 -4.898438 2.960938 -4.765625 3.265625 -4.671875 C 3.578125 -4.585938 3.910156 -4.484375 4.265625 -4.359375 C 4.628906 -4.234375 4.960938 -4.097656 5.265625 -3.953125 C 5.578125 -3.804688 5.832031 -3.582031 6.03125 -3.28125 C 6.238281 -2.976562 6.34375 -2.609375 6.34375 -2.171875 C 6.34375 -1.503906 6.070312 -0.96875 5.53125 -0.5625 C 4.988281 -0.15625 4.289062 0.046875 3.4375 0.046875 C 2.84375 0.046875 2.269531 -0.0625 1.71875 -0.28125 C 1.175781 -0.5 0.695312 -0.796875 0.28125 -1.171875 L 0.84375 -2.296875 C 1.238281 -1.941406 1.664062 -1.664062 2.125 -1.46875 C 2.59375 -1.269531 3.035156 -1.171875 3.453125 -1.171875 C 3.910156 -1.171875 4.265625 -1.253906 4.515625 -1.421875 C 4.765625 -1.585938 4.890625 -1.816406 4.890625 -2.109375 C 4.890625 -2.378906 4.785156 -2.601562 4.578125 -2.78125 C 4.378906 -2.957031 4.125 -3.085938 3.8125 -3.171875 C 3.507812 -3.253906 3.175781 -3.351562 2.8125 -3.46875 C 2.457031 -3.59375 2.125 -3.722656 1.8125 -3.859375 C 1.507812 -3.992188 1.253906 -4.210938 1.046875 -4.515625 C 0.835938 -4.816406 0.734375 -5.179688 0.734375 -5.609375 C 0.734375 -6.265625 0.988281 -6.785156 1.5 -7.171875 C 2.019531 -7.554688 2.703125 -7.75 3.546875 -7.75 Z M 3.546875 -7.75 "/></g></g></g><g fill="#7ed957" fill-opacity="1"><g transform="translate(298.99081, 202.650889)"><g><path d="M 1.546875 -6.609375 C 2.335938 -7.359375 3.304688 -7.734375 4.453125 -7.734375 C 5.609375 -7.734375 6.578125 -7.359375 7.359375 -6.609375 C 8.140625 -5.867188 8.53125 -4.945312 8.53125 -3.84375 C 8.53125 -2.75 8.140625 -1.820312 7.359375 -1.0625 C 6.578125 -0.3125 5.609375 0.0625 4.453125 0.0625 C 3.304688 0.0625 2.335938 -0.3125 1.546875 -1.0625 C 0.765625 -1.820312 0.375 -2.75 0.375 -3.84375 C 0.375 -4.945312 0.765625 -5.867188 1.546875 -6.609375 Z M 4.46875 -6.5625 C 3.707031 -6.5625 3.050781 -6.300781 2.5 -5.78125 C 1.957031 -5.257812 1.6875 -4.613281 1.6875 -3.84375 C 1.6875 -3.082031 1.957031 -2.4375 2.5 -1.90625 C 3.050781 -1.375 3.703125 -1.109375 4.453125 -1.109375 C 5.210938 -1.109375 5.859375 -1.375 6.390625 -1.90625 C 6.929688 -2.4375 7.203125 -3.082031 7.203125 -3.84375 C 7.203125 -4.613281 6.929688 -5.257812 6.390625 -5.78125 C 5.859375 -6.300781 5.21875 -6.5625 4.46875 -6.5625 Z M 4.46875 -6.5625 "/></g></g></g><g fill="#7ed957" fill-opacity="1"><g transform="translate(311.198286, 202.650889)"><g><path d="M 2.3125 -1.171875 L 5.640625 -1.171875 L 5.640625 0 L 1.015625 0 L 1.015625 -7.703125 L 2.3125 -7.703125 Z M 2.3125 -1.171875 "/></g></g></g><g fill="#7ed957" fill-opacity="1"><g transform="translate(320.370392, 202.650889)"><g><path d="M 7.5625 -7.703125 L 7.5625 -3.1875 C 7.5625 -2.1875 7.265625 -1.394531 6.671875 -0.8125 C 6.078125 -0.226562 5.257812 0.0625 4.21875 0.0625 C 3.175781 0.0625 2.351562 -0.226562 1.75 -0.8125 C 1.15625 -1.394531 0.859375 -2.1875 0.859375 -3.1875 L 0.859375 -7.703125 L 2.15625 -7.703125 L 2.15625 -3.1875 C 2.15625 -2.539062 2.335938 -2.03125 2.703125 -1.65625 C 3.078125 -1.289062 3.582031 -1.109375 4.21875 -1.109375 C 4.851562 -1.109375 5.351562 -1.289062 5.71875 -1.65625 C 6.082031 -2.03125 6.265625 -2.539062 6.265625 -3.1875 L 6.265625 -7.703125 Z M 7.5625 -7.703125 "/></g></g></g><g fill="#7ed957" fill-opacity="1"><g transform="translate(332.071973, 202.650889)"><g><path d="M 6.265625 -6.53125 L 3.828125 -6.53125 L 3.828125 0 L 2.53125 0 L 2.53125 -6.53125 L 0.09375 -6.53125 L 0.09375 -7.703125 L 6.265625 -7.703125 Z M 6.265625 -6.53125 "/></g></g></g><g fill="#7ed957" fill-opacity="1"><g transform="translate(341.738975, 202.650889)"><g><path d="M 2.3125 0 L 1.015625 0 L 1.015625 -7.703125 L 2.3125 -7.703125 Z M 2.3125 0 "/></g></g></g><g fill="#7ed957" fill-opacity="1"><g transform="translate(348.359603, 202.650889)"><g><path d="M 1.546875 -6.609375 C 2.335938 -7.359375 3.304688 -7.734375 4.453125 -7.734375 C 5.609375 -7.734375 6.578125 -7.359375 7.359375 -6.609375 C 8.140625 -5.867188 8.53125 -4.945312 8.53125 -3.84375 C 8.53125 -2.75 8.140625 -1.820312 7.359375 -1.0625 C 6.578125 -0.3125 5.609375 0.0625 4.453125 0.0625 C 3.304688 0.0625 2.335938 -0.3125 1.546875 -1.0625 C 0.765625 -1.820312 0.375 -2.75 0.375 -3.84375 C 0.375 -4.945312 0.765625 -5.867188 1.546875 -6.609375 Z M 4.46875 -6.5625 C 3.707031 -6.5625 3.050781 -6.300781 2.5 -5.78125 C 1.957031 -5.257812 1.6875 -4.613281 1.6875 -3.84375 C 1.6875 -3.082031 1.957031 -2.4375 2.5 -1.90625 C 3.050781 -1.375 3.703125 -1.109375 4.453125 -1.109375 C 5.210938 -1.109375 5.859375 -1.375 6.390625 -1.90625 C 6.929688 -2.4375 7.203125 -3.082031 7.203125 -3.84375 C 7.203125 -4.613281 6.929688 -5.257812 6.390625 -5.78125 C 5.859375 -6.300781 5.21875 -6.5625 4.46875 -6.5625 Z M 4.46875 -6.5625 "/></g></g></g><g fill="#7ed957" fill-opacity="1"><g transform="translate(360.567085, 202.650889)"><g><path d="M 7.6875 0 L 6.40625 0 L 2.3125 -5.515625 L 2.3125 0 L 1.015625 0 L 1.015625 -7.703125 L 2.28125 -7.703125 L 6.40625 -2.171875 L 6.40625 -7.703125 L 7.6875 -7.703125 Z M 7.6875 0 "/></g></g></g></svg>