<svg xmlns="http://www.w3.org/2000/svg" xmlns:xlink="http://www.w3.org/1999/xlink" width="500" zoomAndPan="magnify" viewBox="0 0 375 374.999991" height="500" preserveAspectRatio="xMidYMid meet" version="1.0"><defs><g/><clipPath id="b832ae576f"><path d="M 102.371094 151.476562 L 177.371094 151.476562 L 177.371094 223.476562 L 102.371094 223.476562 Z M 102.371094 151.476562 " clip-rule="nonzero"/></clipPath></defs><rect x="-37.5" width="450" fill="#ffffff" y="-37.499999" height="449.999989" fill-opacity="1"/><rect x="-37.5" width="450" fill="#ffffff" y="-37.499999" height="449.999989" fill-opacity="1"/><g clip-path="url(#b832ae576f)"><path fill="#4cb648" d="M 177.324219 153.265625 C 177.097656 152.070312 175.949219 151.285156 174.75 151.511719 L 163.023438 153.753906 C 162.285156 153.894531 161.664062 154.40625 161.382812 155.113281 L 156.277344 168.136719 L 127.835938 168.847656 C 129.277344 170.253906 130.175781 172.21875 130.175781 174.390625 C 130.175781 178.671875 126.707031 182.140625 122.433594 182.140625 C 118.152344 182.140625 114.683594 178.671875 114.683594 174.390625 C 114.683594 174.320312 114.683594 174.25 114.6875 174.179688 C 114.140625 174.402344 113.535156 174.527344 112.90625 174.527344 C 110.28125 174.527344 108.152344 172.394531 108.152344 169.773438 C 108.152344 169.628906 108.164062 169.480469 108.171875 169.339844 L 104.527344 169.429688 C 103.902344 169.449219 103.3125 169.730469 102.910156 170.203125 C 102.507812 170.679688 102.316406 171.296875 102.398438 171.917969 L 105.53125 196.355469 C 105.664062 197.386719 106.507812 198.191406 107.542969 198.269531 L 145.5 201.238281 L 152.355469 208.023438 C 153.152344 208.808594 152.859375 209.722656 152.757812 209.984375 C 152.652344 210.242188 152.214844 211.101562 151.089844 211.101562 L 105.171875 211.101562 C 103.953125 211.101562 102.96875 212.085938 102.96875 213.304688 C 102.96875 214.519531 103.953125 215.507812 105.171875 215.507812 L 109.882812 215.507812 C 108.609375 216.25 107.75 217.621094 107.75 219.199219 C 107.75 221.558594 109.671875 223.476562 112.027344 223.476562 C 114.386719 223.476562 116.300781 221.558594 116.300781 219.199219 C 116.300781 217.621094 115.4375 216.25 114.171875 215.507812 L 149.726562 215.507812 C 148.453125 216.25 147.59375 217.621094 147.59375 219.199219 C 147.59375 221.558594 149.511719 223.476562 151.867188 223.476562 C 154.226562 223.476562 156.144531 221.558594 156.144531 219.199219 C 156.144531 217.3125 154.910156 215.707031 153.210938 215.144531 C 154.828125 214.570312 156.132812 213.34375 156.824219 211.660156 C 157.800781 209.285156 157.273438 206.695312 155.453125 204.890625 L 149.0625 198.554688 L 159.839844 171.109375 C 159.839844 171.105469 159.839844 171.105469 159.839844 171.105469 L 165.039062 157.851562 L 175.574219 155.839844 C 176.769531 155.617188 177.554688 154.464844 177.324219 153.265625 Z M 114.703125 219.199219 C 114.703125 220.679688 113.5 221.878906 112.027344 221.878906 C 110.554688 221.878906 109.351562 220.679688 109.351562 219.199219 C 109.351562 217.726562 110.554688 216.523438 112.027344 216.523438 C 113.5 216.523438 114.703125 217.722656 114.703125 219.199219 Z M 154.542969 219.199219 C 154.542969 220.679688 153.339844 221.878906 151.867188 221.878906 C 150.394531 221.878906 149.191406 220.679688 149.191406 219.199219 C 149.191406 217.726562 150.394531 216.523438 151.867188 216.523438 C 153.339844 216.523438 154.542969 217.722656 154.542969 219.199219 Z M 154.542969 219.199219 " fill-opacity="1" fill-rule="nonzero"/></g><path fill="#4cb648" d="M 112.027344 217.953125 C 111.335938 217.953125 110.777344 218.511719 110.777344 219.199219 C 110.777344 219.890625 111.335938 220.449219 112.027344 220.449219 C 112.71875 220.449219 113.277344 219.890625 113.277344 219.199219 C 113.277344 218.511719 112.71875 217.953125 112.027344 217.953125 Z M 112.027344 217.953125 " fill-opacity="1" fill-rule="nonzero"/><path fill="#4cb648" d="M 150.621094 219.199219 C 150.621094 219.890625 151.179688 220.449219 151.867188 220.449219 C 152.558594 220.449219 153.117188 219.890625 153.117188 219.199219 C 153.117188 218.511719 152.558594 217.953125 151.867188 217.953125 C 151.179688 217.953125 150.621094 218.511719 150.621094 219.199219 Z M 150.621094 219.199219 " fill-opacity="1" fill-rule="nonzero"/><path fill="#1f763b" d="M 127.945312 174.398438 C 127.945312 174.757812 127.910156 175.117188 127.839844 175.472656 C 127.769531 175.828125 127.664062 176.175781 127.527344 176.507812 C 127.386719 176.84375 127.21875 177.164062 127.015625 177.464844 C 126.816406 177.765625 126.585938 178.042969 126.328125 178.300781 C 126.074219 178.554688 125.792969 178.785156 125.492188 178.988281 C 125.191406 179.1875 124.875 179.359375 124.539062 179.496094 C 124.203125 179.636719 123.859375 179.742188 123.503906 179.8125 C 123.148438 179.882812 122.789062 179.917969 122.425781 179.917969 C 122.0625 179.917969 121.707031 179.882812 121.351562 179.8125 C 120.996094 179.742188 120.648438 179.636719 120.3125 179.496094 C 119.980469 179.359375 119.660156 179.1875 119.359375 178.988281 C 119.058594 178.785156 118.78125 178.554688 118.523438 178.300781 C 118.265625 178.042969 118.039062 177.765625 117.835938 177.464844 C 117.636719 177.164062 117.464844 176.84375 117.328125 176.507812 C 117.1875 176.175781 117.082031 175.828125 117.011719 175.472656 C 116.941406 175.117188 116.90625 174.757812 116.90625 174.398438 C 116.90625 174.035156 116.941406 173.675781 117.011719 173.320312 C 117.082031 172.964844 117.1875 172.617188 117.328125 172.285156 C 117.464844 171.949219 117.636719 171.632812 117.835938 171.328125 C 118.039062 171.027344 118.265625 170.75 118.523438 170.492188 C 118.78125 170.238281 119.058594 170.007812 119.359375 169.804688 C 119.660156 169.605469 119.980469 169.433594 120.3125 169.296875 C 120.648438 169.15625 120.996094 169.054688 121.351562 168.980469 C 121.707031 168.910156 122.0625 168.875 122.425781 168.875 C 122.789062 168.875 123.148438 168.910156 123.503906 168.980469 C 123.859375 169.054688 124.203125 169.15625 124.539062 169.296875 C 124.875 169.433594 125.191406 169.605469 125.492188 169.804688 C 125.792969 170.007812 126.074219 170.238281 126.328125 170.492188 C 126.585938 170.75 126.816406 171.027344 127.015625 171.328125 C 127.21875 171.632812 127.386719 171.949219 127.527344 172.285156 C 127.664062 172.617188 127.769531 172.964844 127.839844 173.320312 C 127.910156 173.675781 127.945312 174.035156 127.945312 174.398438 Z M 127.945312 174.398438 " fill-opacity="1" fill-rule="nonzero"/><path fill="#1f763b" d="M 115.386719 169.78125 C 115.386719 170.125 115.324219 170.457031 115.191406 170.773438 C 115.058594 171.089844 114.871094 171.371094 114.628906 171.617188 C 114.386719 171.859375 114.105469 172.046875 113.785156 172.179688 C 113.46875 172.308594 113.136719 172.375 112.792969 172.375 C 112.449219 172.375 112.117188 172.308594 111.800781 172.179688 C 111.484375 172.046875 111.203125 171.859375 110.957031 171.617188 C 110.714844 171.371094 110.527344 171.089844 110.398438 170.773438 C 110.265625 170.457031 110.199219 170.125 110.199219 169.78125 C 110.199219 169.4375 110.265625 169.105469 110.398438 168.789062 C 110.527344 168.46875 110.714844 168.1875 110.957031 167.945312 C 111.203125 167.703125 111.484375 167.515625 111.800781 167.382812 C 112.117188 167.25 112.449219 167.183594 112.792969 167.183594 C 113.136719 167.183594 113.46875 167.25 113.785156 167.382812 C 114.105469 167.515625 114.386719 167.703125 114.628906 167.945312 C 114.871094 168.1875 115.058594 168.46875 115.191406 168.789062 C 115.324219 169.105469 115.386719 169.4375 115.386719 169.78125 Z M 115.386719 169.78125 " fill-opacity="1" fill-rule="nonzero"/><path fill="#1f763b" d="M 123.550781 161.769531 C 123.550781 162.261719 123.453125 162.738281 123.265625 163.191406 C 123.078125 163.648438 122.808594 164.046875 122.460938 164.394531 C 122.113281 164.746094 121.710938 165.011719 121.257812 165.199219 C 120.800781 165.390625 120.328125 165.484375 119.835938 165.484375 C 119.34375 165.484375 118.871094 165.390625 118.417969 165.199219 C 117.960938 165.011719 117.558594 164.746094 117.210938 164.394531 C 116.863281 164.046875 116.597656 163.648438 116.40625 163.191406 C 116.21875 162.738281 116.125 162.261719 116.125 161.769531 C 116.125 161.277344 116.21875 160.804688 116.40625 160.351562 C 116.597656 159.894531 116.863281 159.496094 117.210938 159.144531 C 117.558594 158.796875 117.960938 158.53125 118.417969 158.339844 C 118.871094 158.152344 119.34375 158.058594 119.835938 158.058594 C 120.328125 158.058594 120.800781 158.152344 121.257812 158.339844 C 121.710938 158.53125 122.113281 158.796875 122.460938 159.144531 C 122.808594 159.496094 123.078125 159.894531 123.265625 160.351562 C 123.453125 160.804688 123.550781 161.277344 123.550781 161.769531 Z M 123.550781 161.769531 " fill-opacity="1" fill-rule="nonzero"/><path fill="#1f763b" d="M 117.75 154.878906 C 117.75 155.109375 117.707031 155.328125 117.617188 155.542969 C 117.53125 155.753906 117.40625 155.941406 117.242188 156.105469 C 117.082031 156.265625 116.894531 156.390625 116.679688 156.480469 C 116.46875 156.566406 116.246094 156.609375 116.019531 156.613281 C 115.789062 156.609375 115.566406 156.566406 115.355469 156.480469 C 115.144531 156.390625 114.957031 156.265625 114.792969 156.105469 C 114.632812 155.941406 114.507812 155.753906 114.417969 155.542969 C 114.332031 155.328125 114.285156 155.109375 114.285156 154.878906 C 114.285156 154.648438 114.332031 154.429688 114.417969 154.214844 C 114.507812 154.003906 114.632812 153.816406 114.792969 153.65625 C 114.957031 153.492188 115.144531 153.367188 115.355469 153.28125 C 115.566406 153.191406 115.789062 153.148438 116.019531 153.148438 C 116.246094 153.148438 116.46875 153.191406 116.679688 153.28125 C 116.894531 153.367188 117.082031 153.492188 117.242188 153.65625 C 117.40625 153.816406 117.53125 154.003906 117.617188 154.214844 C 117.707031 154.429688 117.75 154.648438 117.75 154.878906 Z M 117.75 154.878906 " fill-opacity="1" fill-rule="nonzero"/><path fill="#1f763b" d="M 113.277344 161.121094 C 113.277344 161.300781 113.242188 161.476562 113.171875 161.644531 C 113.101562 161.8125 113.003906 161.960938 112.875 162.085938 C 112.746094 162.214844 112.601562 162.3125 112.433594 162.382812 C 112.265625 162.453125 112.089844 162.488281 111.910156 162.488281 C 111.730469 162.488281 111.554688 162.453125 111.386719 162.382812 C 111.21875 162.3125 111.074219 162.214844 110.945312 162.085938 C 110.816406 161.960938 110.71875 161.8125 110.648438 161.644531 C 110.578125 161.476562 110.542969 161.300781 110.542969 161.121094 C 110.542969 160.941406 110.578125 160.765625 110.648438 160.597656 C 110.71875 160.429688 110.816406 160.285156 110.945312 160.15625 C 111.074219 160.027344 111.21875 159.929688 111.386719 159.859375 C 111.554688 159.789062 111.730469 159.753906 111.910156 159.753906 C 112.089844 159.753906 112.265625 159.789062 112.433594 159.859375 C 112.601562 159.929688 112.746094 160.027344 112.875 160.15625 C 113.003906 160.285156 113.101562 160.429688 113.171875 160.597656 C 113.242188 160.765625 113.277344 160.941406 113.277344 161.121094 Z M 113.277344 161.121094 " fill-opacity="1" fill-rule="nonzero"/><g fill="#3a4a3d" fill-opacity="1"><g transform="translate(162.189032, 208.067857)"><g><path d="M 21.859375 1.171875 C 20.617188 1.171875 19.648438 0.976562 18.953125 0.59375 C 18.253906 0.21875 17.765625 -0.367188 17.484375 -1.171875 C 17.203125 -1.984375 17.0625 -3.066406 17.0625 -4.421875 L 17.0625 -14.4375 L 10.5625 0 L 10.03125 0 L 3.28125 -14.6875 L 3.28125 0 L 2.234375 0 L 2.234375 -17.15625 L 4.703125 -17.15625 L 10.953125 -3.640625 L 17.0625 -17.15625 L 19.390625 -17.15625 L 19.390625 -4.421875 C 19.390625 -2.804688 19.59375 -1.554688 20 -0.671875 C 20.414062 0.210938 21.035156 0.65625 21.859375 0.65625 Z M 21.859375 1.171875 "/></g></g></g><g fill="#3a4a3d" fill-opacity="1"><g transform="translate(187.012364, 208.067857)"><g><path d="M 4.78125 0.265625 C 4.226562 0.265625 3.664062 0.148438 3.09375 -0.078125 C 2.519531 -0.316406 2.03125 -0.703125 1.625 -1.234375 C 1.21875 -1.773438 1.015625 -2.488281 1.015625 -3.375 C 1.015625 -4.695312 1.625 -5.632812 2.84375 -6.1875 C 4.070312 -6.738281 5.671875 -7.015625 7.640625 -7.015625 L 8.421875 -7.015625 C 8.421875 -8.710938 8.1875 -9.875 7.71875 -10.5 C 7.25 -11.125 6.570312 -11.4375 5.6875 -11.4375 C 4.914062 -11.4375 4.296875 -11.269531 3.828125 -10.9375 C 3.359375 -10.613281 3.023438 -10.046875 2.828125 -9.234375 L 1.65625 -9.234375 C 1.65625 -9.816406 1.691406 -10.273438 1.765625 -10.609375 C 1.835938 -10.953125 2.019531 -11.269531 2.3125 -11.5625 C 2.625 -11.875 3.140625 -12.101562 3.859375 -12.25 C 4.578125 -12.40625 5.363281 -12.484375 6.21875 -12.484375 C 7.613281 -12.484375 8.71875 -12.101562 9.53125 -11.34375 C 10.351562 -10.59375 10.765625 -9.148438 10.765625 -7.015625 L 10.765625 0 L 9.46875 0 L 8.546875 -1.171875 L 8.421875 -1.171875 C 8.109375 -0.773438 7.648438 -0.4375 7.046875 -0.15625 C 6.441406 0.125 5.6875 0.265625 4.78125 0.265625 Z M 5.953125 -0.90625 C 6.523438 -0.90625 7 -1.039062 7.375 -1.3125 C 7.757812 -1.59375 8.109375 -1.976562 8.421875 -2.46875 L 8.421875 -5.984375 L 7.640625 -5.984375 C 6.359375 -5.984375 5.34375 -5.742188 4.59375 -5.265625 C 3.851562 -4.785156 3.484375 -4.15625 3.484375 -3.375 C 3.484375 -2.582031 3.71875 -1.972656 4.1875 -1.546875 C 4.664062 -1.117188 5.253906 -0.90625 5.953125 -0.90625 Z M 5.953125 -0.90625 "/></g></g></g><g fill="#3a4a3d" fill-opacity="1"><g transform="translate(202.114616, 208.067857)"><g><path d="M 2.078125 -9.09375 C 2.078125 -9.976562 1.957031 -10.632812 1.71875 -11.0625 C 1.476562 -11.488281 0.992188 -11.703125 0.265625 -11.703125 L 0 -11.703125 L 0 -12.21875 L 2.078125 -12.21875 C 2.734375 -12.21875 3.226562 -12.125 3.5625 -11.9375 C 3.90625 -11.757812 4.148438 -11.460938 4.296875 -11.046875 L 4.421875 -11.046875 C 4.734375 -11.441406 5.148438 -11.78125 5.671875 -12.0625 C 6.203125 -12.34375 6.828125 -12.484375 7.546875 -12.484375 C 8.234375 -12.484375 8.75 -12.351562 9.09375 -12.09375 C 9.394531 -11.863281 9.703125 -11.472656 10.015625 -10.921875 L 8.96875 -10.140625 C 8.78125 -10.398438 8.503906 -10.59375 8.140625 -10.71875 C 7.773438 -10.851562 7.359375 -10.921875 6.890625 -10.921875 C 6.367188 -10.921875 5.890625 -10.800781 5.453125 -10.5625 C 5.023438 -10.332031 4.679688 -10.019531 4.421875 -9.625 L 4.421875 0 L 2.078125 0 Z M 2.078125 -9.09375 "/></g></g></g><g fill="#3a4a3d" fill-opacity="1"><g transform="translate(215.033518, 208.067857)"><g><path d="M 5.484375 0.265625 C 4.515625 0.265625 3.75 -0.0078125 3.1875 -0.5625 C 2.632812 -1.125 2.359375 -1.976562 2.359375 -3.125 L 2.359375 -11.1875 L 0.546875 -11.1875 L 0.546875 -12.21875 L 2.359375 -12.21875 L 2.359375 -14.5625 L 3.671875 -16.125 L 4.703125 -16.125 L 4.703125 -12.21875 L 7.828125 -12.21875 L 7.828125 -11.1875 L 4.703125 -11.1875 L 4.703125 -3.125 C 4.703125 -1.5625 5.3125 -0.78125 6.53125 -0.78125 C 6.945312 -0.78125 7.296875 -0.820312 7.578125 -0.90625 C 7.867188 -1 8.164062 -1.128906 8.46875 -1.296875 L 8.734375 -0.78125 C 8.335938 -0.488281 7.894531 -0.238281 7.40625 -0.03125 C 6.925781 0.164062 6.285156 0.265625 5.484375 0.265625 Z M 5.484375 0.265625 "/></g></g></g><g fill="#3a4a3d" fill-opacity="1"><g transform="translate(162.189032, 186.082531)"><g><path d="M 2.359375 -11.984375 C 2.359375 -12.742188 2.253906 -13.300781 2.046875 -13.65625 C 1.835938 -14.019531 1.421875 -14.203125 0.796875 -14.203125 L 0.359375 -14.203125 L 0.359375 -14.65625 L 6.125 -14.65625 C 7.550781 -14.65625 8.832031 -14.347656 9.96875 -13.734375 C 11.101562 -13.128906 11.671875 -11.957031 11.671875 -10.21875 C 11.671875 -9.0625 11.375 -8.171875 10.78125 -7.546875 C 10.195312 -6.921875 9.535156 -6.503906 8.796875 -6.296875 C 8.066406 -6.097656 7.398438 -6 6.796875 -6 L 4.359375 -6 L 4.359375 0 L 2.359375 0 Z M 6.015625 -6.765625 C 6.492188 -6.765625 7 -6.882812 7.53125 -7.125 C 8.0625 -7.375 8.515625 -7.765625 8.890625 -8.296875 C 9.265625 -8.835938 9.453125 -9.515625 9.453125 -10.328125 C 9.453125 -11.140625 9.265625 -11.8125 8.890625 -12.34375 C 8.515625 -12.875 8.0625 -13.257812 7.53125 -13.5 C 7 -13.75 6.492188 -13.875 6.015625 -13.875 C 5.492188 -13.875 4.941406 -13.800781 4.359375 -13.65625 L 4.359375 -7 C 4.941406 -6.84375 5.492188 -6.765625 6.015625 -6.765625 Z M 6.015625 -6.765625 "/></g></g></g><g fill="#3a4a3d" fill-opacity="1"><g transform="translate(174.440824, 186.082531)"><g><path d="M 1.78125 -7.765625 C 1.78125 -8.523438 1.675781 -9.082031 1.46875 -9.4375 C 1.257812 -9.800781 0.84375 -9.984375 0.21875 -9.984375 L 0 -9.984375 L 0 -10.4375 L 1.78125 -10.4375 C 2.34375 -10.4375 2.765625 -10.359375 3.046875 -10.203125 C 3.335938 -10.046875 3.539062 -9.789062 3.65625 -9.4375 L 3.78125 -9.4375 C 4.039062 -9.78125 4.394531 -10.066406 4.84375 -10.296875 C 5.300781 -10.535156 5.832031 -10.65625 6.4375 -10.65625 C 7.03125 -10.65625 7.472656 -10.546875 7.765625 -10.328125 C 8.023438 -10.128906 8.285156 -9.796875 8.546875 -9.328125 L 7.65625 -8.65625 C 7.5 -8.882812 7.265625 -9.050781 6.953125 -9.15625 C 6.640625 -9.269531 6.285156 -9.328125 5.890625 -9.328125 C 5.441406 -9.328125 5.03125 -9.222656 4.65625 -9.015625 C 4.289062 -8.816406 4 -8.550781 3.78125 -8.21875 L 3.78125 0 L 1.78125 0 Z M 1.78125 -7.765625 "/></g></g></g><g fill="#3a4a3d" fill-opacity="1"><g transform="translate(183.252351, 186.082531)"><g><path d="M 2.78125 -11.765625 C 2.4375 -11.765625 2.140625 -11.90625 1.890625 -12.1875 C 1.648438 -12.46875 1.53125 -12.800781 1.53125 -13.1875 C 1.53125 -13.5 1.625 -13.742188 1.8125 -13.921875 C 2 -14.097656 2.242188 -14.1875 2.546875 -14.1875 C 2.890625 -14.1875 3.179688 -14.046875 3.421875 -13.765625 C 3.671875 -13.484375 3.796875 -13.148438 3.796875 -12.765625 C 3.796875 -12.453125 3.703125 -12.207031 3.515625 -12.03125 C 3.328125 -11.851562 3.082031 -11.765625 2.78125 -11.765625 Z M 1.9375 -7.765625 C 1.9375 -8.523438 1.832031 -9.082031 1.625 -9.4375 C 1.414062 -9.800781 1 -9.984375 0.375 -9.984375 L -0.0625 -9.984375 L -0.0625 -10.4375 L 1.9375 -10.4375 C 2.476562 -10.4375 2.882812 -10.363281 3.15625 -10.21875 C 3.4375 -10.082031 3.632812 -9.828125 3.75 -9.453125 C 3.875 -9.085938 3.9375 -8.523438 3.9375 -7.765625 L 3.9375 0 L 1.9375 0 Z M 1.9375 -7.765625 "/></g></g></g><g fill="#3a4a3d" fill-opacity="1"><g transform="translate(188.712384, 186.082531)"><g><path d="M 1.9375 -7.765625 C 1.9375 -8.523438 1.832031 -9.082031 1.625 -9.4375 C 1.414062 -9.800781 1 -9.984375 0.375 -9.984375 L -0.0625 -9.984375 L -0.0625 -10.4375 L 1.9375 -10.4375 C 2.476562 -10.4375 2.894531 -10.359375 3.1875 -10.203125 C 3.476562 -10.054688 3.6875 -9.835938 3.8125 -9.546875 L 3.9375 -9.546875 C 4.238281 -9.859375 4.640625 -10.117188 5.140625 -10.328125 C 5.640625 -10.546875 6.195312 -10.65625 6.8125 -10.65625 C 7.4375 -10.65625 7.96875 -10.539062 8.40625 -10.3125 C 8.851562 -10.082031 9.210938 -9.679688 9.484375 -9.109375 C 9.867188 -9.597656 10.359375 -9.976562 10.953125 -10.25 C 11.554688 -10.519531 12.175781 -10.65625 12.8125 -10.65625 C 13.757812 -10.65625 14.515625 -10.359375 15.078125 -9.765625 C 15.640625 -9.171875 15.921875 -8.132812 15.921875 -6.65625 L 15.921875 0 L 13.921875 0 L 13.921875 -6.65625 C 13.921875 -7.726562 13.769531 -8.492188 13.46875 -8.953125 C 13.175781 -9.421875 12.734375 -9.65625 12.140625 -9.65625 C 11.734375 -9.65625 11.296875 -9.503906 10.828125 -9.203125 C 10.367188 -8.898438 10.03125 -8.570312 9.8125 -8.21875 C 9.882812 -7.988281 9.921875 -7.46875 9.921875 -6.65625 L 9.921875 0 L 7.921875 0 L 7.921875 -6.65625 C 7.921875 -7.726562 7.769531 -8.492188 7.46875 -8.953125 C 7.175781 -9.421875 6.738281 -9.65625 6.15625 -9.65625 C 5.363281 -9.65625 4.625 -9.265625 3.9375 -8.484375 L 3.9375 0 L 1.9375 0 Z M 1.9375 -7.765625 "/></g></g></g><g fill="#3a4a3d" fill-opacity="1"><g transform="translate(206.135681, 186.082531)"><g><path d="M 5.65625 0.21875 C 4.65625 0.21875 3.804688 -0.0195312 3.109375 -0.5 C 2.410156 -0.976562 1.882812 -1.628906 1.53125 -2.453125 C 1.175781 -3.273438 1 -4.195312 1 -5.21875 C 1 -6.226562 1.175781 -7.144531 1.53125 -7.96875 C 1.882812 -8.800781 2.394531 -9.457031 3.0625 -9.9375 C 3.738281 -10.414062 4.53125 -10.65625 5.4375 -10.65625 C 6.9375 -10.65625 8.050781 -10.238281 8.78125 -9.40625 C 9.507812 -8.570312 9.875 -7.359375 9.875 -5.765625 L 9.84375 -4.890625 L 3.109375 -4.890625 C 3.109375 -3.640625 3.375 -2.625 3.90625 -1.84375 C 4.4375 -1.0625 5.171875 -0.671875 6.109375 -0.671875 C 6.804688 -0.671875 7.394531 -0.816406 7.875 -1.109375 C 8.351562 -1.398438 8.800781 -1.84375 9.21875 -2.4375 L 9.65625 -2.109375 C 9.164062 -1.296875 8.59375 -0.703125 7.9375 -0.328125 C 7.289062 0.0351562 6.53125 0.21875 5.65625 0.21875 Z M 7.765625 -5.765625 C 7.765625 -7.078125 7.570312 -8.070312 7.1875 -8.75 C 6.800781 -9.425781 6.21875 -9.765625 5.4375 -9.765625 C 5 -9.765625 4.597656 -9.585938 4.234375 -9.234375 C 3.878906 -8.890625 3.601562 -8.414062 3.40625 -7.8125 C 3.207031 -7.207031 3.109375 -6.523438 3.109375 -5.765625 Z M 7.765625 -5.765625 "/></g></g></g><g fill="#1f763b" fill-opacity="1"><g transform="translate(164.289032, 221.659072)"><g><path d="M 1.125 -4.8125 C 1.695312 -5.351562 2.398438 -5.625 3.234375 -5.625 C 4.078125 -5.625 4.78125 -5.351562 5.34375 -4.8125 C 5.914062 -4.269531 6.203125 -3.597656 6.203125 -2.796875 C 6.203125 -1.992188 5.914062 -1.316406 5.34375 -0.765625 C 4.78125 -0.222656 4.078125 0.046875 3.234375 0.046875 C 2.398438 0.046875 1.695312 -0.222656 1.125 -0.765625 C 0.550781 -1.316406 0.265625 -1.992188 0.265625 -2.796875 C 0.265625 -3.597656 0.550781 -4.269531 1.125 -4.8125 Z M 3.25 -4.78125 C 2.695312 -4.78125 2.222656 -4.585938 1.828125 -4.203125 C 1.429688 -3.816406 1.234375 -3.347656 1.234375 -2.796875 C 1.234375 -2.242188 1.429688 -1.773438 1.828125 -1.390625 C 2.222656 -1.003906 2.695312 -0.8125 3.25 -0.8125 C 3.800781 -0.8125 4.269531 -1.003906 4.65625 -1.390625 C 5.039062 -1.773438 5.234375 -2.242188 5.234375 -2.796875 C 5.234375 -3.347656 5.039062 -3.816406 4.65625 -4.203125 C 4.269531 -4.585938 3.800781 -4.78125 3.25 -4.78125 Z M 3.25 -4.78125 "/></g></g></g><g fill="#1f763b" fill-opacity="1"><g transform="translate(173.169101, 221.659072)"><g><path d="M 5.59375 0 L 4.65625 0 L 1.6875 -4.015625 L 1.6875 0 L 0.734375 0 L 0.734375 -5.59375 L 1.65625 -5.59375 L 4.65625 -1.578125 L 4.65625 -5.59375 L 5.59375 -5.59375 Z M 5.59375 0 "/></g></g></g><g fill="#1f763b" fill-opacity="1"><g transform="translate(181.905176, 221.659072)"><g><path d="M 1.6875 -0.859375 L 4.109375 -0.859375 L 4.109375 0 L 0.734375 0 L 0.734375 -5.59375 L 1.6875 -5.59375 Z M 1.6875 -0.859375 "/></g></g></g><g fill="#1f763b" fill-opacity="1"><g transform="translate(188.577232, 221.659072)"><g><path d="M 1.6875 0 L 0.734375 0 L 0.734375 -5.59375 L 1.6875 -5.59375 Z M 1.6875 0 "/></g></g></g><g fill="#1f763b" fill-opacity="1"><g transform="translate(193.393261, 221.659072)"><g><path d="M 5.59375 0 L 4.65625 0 L 1.6875 -4.015625 L 1.6875 0 L 0.734375 0 L 0.734375 -5.59375 L 1.65625 -5.59375 L 4.65625 -1.578125 L 4.65625 -5.59375 L 5.59375 -5.59375 Z M 5.59375 0 "/></g></g></g><g fill="#1f763b" fill-opacity="1"><g transform="translate(202.129335, 221.659072)"><g><path d="M 4.734375 -4.75 L 1.6875 -4.75 L 1.6875 -3.234375 L 4.421875 -3.234375 L 4.421875 -2.390625 L 1.6875 -2.390625 L 1.6875 -0.84375 L 4.828125 -0.84375 L 4.828125 0 L 0.734375 0 L 0.734375 -5.59375 L 4.734375 -5.59375 Z M 4.734375 -4.75 "/></g></g></g><g fill="#1f763b" fill-opacity="1"><g transform="translate(209.777394, 221.659072)"><g/></g></g><g fill="#1f763b" fill-opacity="1"><g transform="translate(214.241422, 221.659072)"><g><path d="M 2.578125 -5.640625 C 3.296875 -5.640625 3.945312 -5.445312 4.53125 -5.0625 L 4.140625 -4.234375 C 3.566406 -4.578125 3.019531 -4.75 2.5 -4.75 C 2.21875 -4.75 1.992188 -4.695312 1.828125 -4.59375 C 1.671875 -4.5 1.59375 -4.359375 1.59375 -4.171875 C 1.59375 -3.984375 1.664062 -3.820312 1.8125 -3.6875 C 1.96875 -3.5625 2.15625 -3.46875 2.375 -3.40625 C 2.601562 -3.34375 2.847656 -3.265625 3.109375 -3.171875 C 3.367188 -3.078125 3.609375 -2.976562 3.828125 -2.875 C 4.054688 -2.769531 4.242188 -2.609375 4.390625 -2.390625 C 4.535156 -2.171875 4.609375 -1.898438 4.609375 -1.578125 C 4.609375 -1.085938 4.410156 -0.695312 4.015625 -0.40625 C 3.628906 -0.113281 3.125 0.03125 2.5 0.03125 C 2.070312 0.03125 1.65625 -0.046875 1.25 -0.203125 C 0.851562 -0.367188 0.503906 -0.585938 0.203125 -0.859375 L 0.609375 -1.671875 C 0.898438 -1.410156 1.210938 -1.207031 1.546875 -1.0625 C 1.890625 -0.925781 2.210938 -0.859375 2.515625 -0.859375 C 2.847656 -0.859375 3.101562 -0.914062 3.28125 -1.03125 C 3.46875 -1.15625 3.5625 -1.320312 3.5625 -1.53125 C 3.5625 -1.726562 3.484375 -1.890625 3.328125 -2.015625 C 3.179688 -2.148438 2.992188 -2.25 2.765625 -2.3125 C 2.546875 -2.375 2.304688 -2.445312 2.046875 -2.53125 C 1.785156 -2.613281 1.539062 -2.703125 1.3125 -2.796875 C 1.09375 -2.898438 0.90625 -3.0625 0.75 -3.28125 C 0.601562 -3.5 0.53125 -3.765625 0.53125 -4.078125 C 0.53125 -4.554688 0.71875 -4.9375 1.09375 -5.21875 C 1.46875 -5.5 1.960938 -5.640625 2.578125 -5.640625 Z M 2.578125 -5.640625 "/></g></g></g><g fill="#1f763b" fill-opacity="1"><g transform="translate(221.617477, 221.659072)"><g><path d="M 1.125 -4.8125 C 1.695312 -5.351562 2.398438 -5.625 3.234375 -5.625 C 4.078125 -5.625 4.78125 -5.351562 5.34375 -4.8125 C 5.914062 -4.269531 6.203125 -3.597656 6.203125 -2.796875 C 6.203125 -1.992188 5.914062 -1.316406 5.34375 -0.765625 C 4.78125 -0.222656 4.078125 0.046875 3.234375 0.046875 C 2.398438 0.046875 1.695312 -0.222656 1.125 -0.765625 C 0.550781 -1.316406 0.265625 -1.992188 0.265625 -2.796875 C 0.265625 -3.597656 0.550781 -4.269531 1.125 -4.8125 Z M 3.25 -4.78125 C 2.695312 -4.78125 2.222656 -4.585938 1.828125 -4.203125 C 1.429688 -3.816406 1.234375 -3.347656 1.234375 -2.796875 C 1.234375 -2.242188 1.429688 -1.773438 1.828125 -1.390625 C 2.222656 -1.003906 2.695312 -0.8125 3.25 -0.8125 C 3.800781 -0.8125 4.269531 -1.003906 4.65625 -1.390625 C 5.039062 -1.773438 5.234375 -2.242188 5.234375 -2.796875 C 5.234375 -3.347656 5.039062 -3.816406 4.65625 -4.203125 C 4.269531 -4.585938 3.800781 -4.78125 3.25 -4.78125 Z M 3.25 -4.78125 "/></g></g></g><g fill="#1f763b" fill-opacity="1"><g transform="translate(230.497544, 221.659072)"><g><path d="M 1.6875 -0.859375 L 4.109375 -0.859375 L 4.109375 0 L 0.734375 0 L 0.734375 -5.59375 L 1.6875 -5.59375 Z M 1.6875 -0.859375 "/></g></g></g><g fill="#1f763b" fill-opacity="1"><g transform="translate(237.169597, 221.659072)"><g><path d="M 5.5 -5.59375 L 5.5 -2.3125 C 5.5 -1.582031 5.28125 -1.003906 4.84375 -0.578125 C 4.414062 -0.160156 3.820312 0.046875 3.0625 0.046875 C 2.300781 0.046875 1.703125 -0.160156 1.265625 -0.578125 C 0.835938 -1.003906 0.625 -1.582031 0.625 -2.3125 L 0.625 -5.59375 L 1.5625 -5.59375 L 1.5625 -2.3125 C 1.5625 -1.84375 1.695312 -1.472656 1.96875 -1.203125 C 2.238281 -0.941406 2.609375 -0.8125 3.078125 -0.8125 C 3.535156 -0.8125 3.894531 -0.941406 4.15625 -1.203125 C 4.414062 -1.472656 4.546875 -1.84375 4.546875 -2.3125 L 4.546875 -5.59375 Z M 5.5 -5.59375 "/></g></g></g><g fill="#1f763b" fill-opacity="1"><g transform="translate(245.681661, 221.659072)"><g><path d="M 4.5625 -4.75 L 2.78125 -4.75 L 2.78125 0 L 1.84375 0 L 1.84375 -4.75 L 0.078125 -4.75 L 0.078125 -5.59375 L 4.5625 -5.59375 Z M 4.5625 -4.75 "/></g></g></g><g fill="#1f763b" fill-opacity="1"><g transform="translate(252.713716, 221.659072)"><g><path d="M 1.6875 0 L 0.734375 0 L 0.734375 -5.59375 L 1.6875 -5.59375 Z M 1.6875 0 "/></g></g></g><g fill="#1f763b" fill-opacity="1"><g transform="translate(257.52975, 221.659072)"><g><path d="M 1.125 -4.8125 C 1.695312 -5.351562 2.398438 -5.625 3.234375 -5.625 C 4.078125 -5.625 4.78125 -5.351562 5.34375 -4.8125 C 5.914062 -4.269531 6.203125 -3.597656 6.203125 -2.796875 C 6.203125 -1.992188 5.914062 -1.316406 5.34375 -0.765625 C 4.78125 -0.222656 4.078125 0.046875 3.234375 0.046875 C 2.398438 0.046875 1.695312 -0.222656 1.125 -0.765625 C 0.550781 -1.316406 0.265625 -1.992188 0.265625 -2.796875 C 0.265625 -3.597656 0.550781 -4.269531 1.125 -4.8125 Z M 3.25 -4.78125 C 2.695312 -4.78125 2.222656 -4.585938 1.828125 -4.203125 C 1.429688 -3.816406 1.234375 -3.347656 1.234375 -2.796875 C 1.234375 -2.242188 1.429688 -1.773438 1.828125 -1.390625 C 2.222656 -1.003906 2.695312 -0.8125 3.25 -0.8125 C 3.800781 -0.8125 4.269531 -1.003906 4.65625 -1.390625 C 5.039062 -1.773438 5.234375 -2.242188 5.234375 -2.796875 C 5.234375 -3.347656 5.039062 -3.816406 4.65625 -4.203125 C 4.269531 -4.585938 3.800781 -4.78125 3.25 -4.78125 Z M 3.25 -4.78125 "/></g></g></g><g fill="#1f763b" fill-opacity="1"><g transform="translate(266.409822, 221.659072)"><g><path d="M 5.59375 0 L 4.65625 0 L 1.6875 -4.015625 L 1.6875 0 L 0.734375 0 L 0.734375 -5.59375 L 1.65625 -5.59375 L 4.65625 -1.578125 L 4.65625 -5.59375 L 5.59375 -5.59375 Z M 5.59375 0 "/></g></g></g></svg>